HIERARCHY
ROOT Hips
{
	OFFSET -3.958830 18.904000 13.208200
	CHANNELS 6 Xposition Yposition Zposition Zrotation Yrotation Xrotation 
	JOINT LHipJoint
	{
		OFFSET 0.000000 0.000000 0.000000
		CHANNELS 3 Zrotation Yrotation Xrotation
		JOINT LeftUpLeg
		{
			OFFSET 1.800000 -1.400000 0.085000
			CHANNELS 3 Zrotation Yrotation Xrotation
			JOINT LeftLeg
			{
				OFFSET 2.215000 -6.000000 0.000000
				CHANNELS 3 Zrotation Yrotation Xrotation
				JOINT LeftFoot
				{
					OFFSET 2.500000 -6.900000 0.000000
					CHANNELS 3 Zrotation Yrotation Xrotation
					JOINT LeftToeBase
					{
						OFFSET 0.200000 -0.500000 1.950000
						CHANNELS 3 Zrotation Yrotation Xrotation
						End Site
						{
							OFFSET 0.000000 0.000000 0.000000
						}
					}
				}
			}
		}
	}
	JOINT RHipJoint
	{
		OFFSET 0.000000 0.000000 0.000000
		CHANNELS 3 Zrotation Yrotation Xrotation
		JOINT RightUpLeg
		{
			OFFSET -1.800000 -1.400000 0.085000
			CHANNELS 3 Zrotation Yrotation Xrotation
			JOINT RightLeg
			{
				OFFSET -2.215000 -6.000000 0.000000
				CHANNELS 3 Zrotation Yrotation Xrotation
				JOINT RightFoot
				{
					OFFSET -2.500000 -6.900000 0.000000
					CHANNELS 3 Zrotation Yrotation Xrotation
					JOINT RightToeBase
					{
						OFFSET -0.200000 -0.500000 1.950000
						CHANNELS 3 Zrotation Yrotation Xrotation
						End Site
						{
							OFFSET 0.000000 0.000000 0.000000
						}
					}
				}
			}
		}
	}
	JOINT LowerBack
	{
		OFFSET 0.000000 0.000000 0.000000
		CHANNELS 3 Zrotation Yrotation Xrotation
		JOINT Spine
		{
			OFFSET -0.087000 1.940000 -0.288900
			CHANNELS 3 Zrotation Yrotation Xrotation
			JOINT Spine1
			{
				OFFSET 0.000000 1.950000 0.060000
				CHANNELS 3 Zrotation Yrotation Xrotation
				JOINT Neck
				{
					OFFSET 0.000000 0.000000 0.000000
					CHANNELS 3 Zrotation Yrotation Xrotation
					JOINT Neck1
					{
						OFFSET 0.000000 1.600000 0.340000
						CHANNELS 3 Zrotation Yrotation Xrotation
						JOINT Head
						{
							OFFSET 0.000000 1.667000 -0.240000
							CHANNELS 3 Zrotation Yrotation Xrotation
							End Site
							{
								OFFSET 0.000000 0.000000 0.000000
							}
						}
					}
				}
				JOINT LeftShoulder
				{
					OFFSET 0.000000 0.000000 0.000000
					CHANNELS 3 Zrotation Yrotation Xrotation
					JOINT LeftArm
					{
						OFFSET 2.700000 1.550000 -0.730000
						CHANNELS 3 Zrotation Yrotation Xrotation
						JOINT LeftForeArm
						{
							OFFSET 5.450000 0.000000 0.000000
							CHANNELS 3 Zrotation Yrotation Xrotation
							JOINT LeftHand
							{
								OFFSET 3.450000 0.000000 0.000000
								CHANNELS 3 Zrotation Yrotation Xrotation
								JOINT LeftHandIndex1
								{
									OFFSET 0.750000 0.000000 0.000000
									CHANNELS 3 Zrotation Yrotation Xrotation
									End Site
									{
										OFFSET 0.000000 0.000000 0.000000
									}
								}
							}
						}
					}
				}
				JOINT RightShoulder
				{
					OFFSET 0.000000 0.000000 0.000000
					CHANNELS 3 Zrotation Yrotation Xrotation
					JOINT RightArm
					{
						OFFSET -2.700000 1.550000 -0.730000
						CHANNELS 3 Zrotation Yrotation Xrotation
						JOINT RightForeArm
						{
							OFFSET -5.450000 0.000000 0.000000
							CHANNELS 3 Zrotation Yrotation Xrotation
							JOINT RightHand
							{
								OFFSET -3.450000 0.000000 0.000000
								CHANNELS 3 Zrotation Yrotation Xrotation
								JOINT RightHandIndex1
								{
									OFFSET -0.750000 0.000000 0.000000
									CHANNELS 3 Zrotation Yrotation Xrotation
									End Site
									{
										OFFSET 0.000000 0.000000 0.000000
									}
								}
							}
						}
					}
				}
			}
		}
	}
}
MOTION
Frames: 7
Frame Time: 0.016667
-2.368470 17.952280 -3.233120 -37.874558 47.498362 -39.502928 -15.619665 11.639488 1.382600 26.195442 -0.336315 -15.898051 -4.030215 10.812463 30.558392 -0.369420 7.607943 1.833736 0.196000 -0.071150 -0.152200 18.631289 -6.824001 6.507822 -32.954377 5.509875 -65.630007 20.343874 -26.858645 60.480492 -1.733174 -12.273956 0.242851 0.195700 0.724470 0.169900 -4.980564 -1.761801 -9.577472 24.951322 -12.386558 34.927084 -10.452083 -4.986845 17.369487 2.203690 -1.168603 -8.344753 -6.629104 -6.440766 36.078201 15.913640 -15.961490 -13.395820 1.089209 -36.193901 0.788961 -5.634139 -48.689296 -4.154336 100.915710 -42.188355 -53.433743 -4.203502 2.064176 0.386760 0.206830 -0.281590 0.235830 -5.633288 31.166263 6.381642 -18.582311 13.480733 -14.964591 -99.574460 48.655384 -55.432479 1.679759 -0.964830 -0.376610 0.534950 0.283680 0.066000 
-2.369720 17.972700 -3.215050 -38.557860 47.912931 -40.239214 -15.628622 11.587826 1.311197 26.315818 -0.088882 -15.567489 -3.937418 10.666644 29.781042 -0.345105 7.458258 1.883679 0.235890 -0.044420 -0.108410 18.633582 -6.799386 6.557930 -33.102139 5.969682 -65.638689 21.010434 -29.221757 63.698290 -1.985415 -13.027866 0.045690 0.189320 0.669880 0.170820 -5.078740 -1.575097 -9.639925 26.046949 -12.277713 34.946543 -11.030519 -4.556345 17.345168 2.467642 -0.899079 -8.491897 -6.416510 -7.085119 36.733935 17.488040 -16.735120 -14.511420 0.273088 -35.920750 0.864278 -9.986067 -49.495174 -1.239294 103.186906 -44.735826 -58.589900 -4.113977 2.002711 0.406810 0.153370 -0.243980 0.243530 -5.373652 30.566301 6.847156 -17.094735 12.828967 -14.165143 -106.064763 49.591063 -64.599064 1.732206 -0.991795 -0.345680 0.504230 0.242070 0.064580 
-2.372470 18.004800 -3.170870 -38.685596 48.407895 -39.721381 -15.665920 11.480436 1.224991 26.212681 0.300730 -15.444841 -4.153364 10.602545 28.541096 -0.225756 7.192881 1.986253 0.248500 -0.043010 -0.073290 18.621808 -6.570340 6.876226 -33.449479 7.250542 -68.068839 22.252241 -34.195001 70.311217 -2.512080 -14.624525 -0.291788 0.111890 0.575960 0.192370 -5.091911 -1.558880 -9.873246 26.411816 -11.317215 34.848935 -10.831240 -3.259317 16.435041 3.050727 0.032731 -9.822764 -5.329713 -8.574679 39.030159 18.383920 -18.348240 -14.259090 -1.763805 -35.361305 2.393547 -18.484158 -49.066747 4.242555 110.173700 -49.111018 -72.599978 -3.986472 1.957822 0.408200 0.097830 -0.178540 0.254830 -4.531136 30.258430 7.767240 -13.603613 13.172051 -12.752636 -118.708038 50.183559 -84.359978 1.901497 -1.322002 -0.258330 0.404070 0.170570 0.073840 
-2.389850 18.052700 -3.133600 -39.072307 49.401023 -39.494154 -15.710281 11.469660 1.086175 25.574259 0.638496 -15.189214 -3.733238 9.982696 26.519502 -0.182111 6.691339 2.144026 0.296990 0.014750 -0.042060 18.582563 -6.389443 7.142795 -33.203103 9.209474 -70.152639 23.192813 -39.551124 77.318640 -3.090310 -16.316336 -0.630096 0.079350 0.471750 0.214400 -5.125733 -1.549297 -10.040112 26.286779 -10.473626 34.896209 -10.486427 -2.269923 15.901597 3.426422 0.465550 -11.068822 -4.876072 -8.752044 41.590642 20.723580 -19.063290 -15.534290 -3.098131 -33.981358 4.905899 -26.607634 -48.342563 8.314384 118.622574 -53.778398 -92.321331 -3.885354 2.201414 0.431720 0.021700 -0.096940 0.268720 -3.920293 29.708841 7.394555 -9.733509 15.245631 -11.834266 -131.578070 52.644657 -108.171116 1.982644 -1.745914 -0.171870 0.312610 0.103160 0.086380 
-2.406490 18.111900 -3.098070 -40.034326 50.707366 -39.845270 -15.750231 11.497748 1.042926 25.104880 0.878045 -15.071746 -3.522653 9.374132 24.309501 -0.223389 6.278077 2.287181 0.323970 0.007430 0.057970 18.512671 -6.331694 7.241728 -31.537562 11.996370 -70.960568 22.819968 -44.039110 84.259961 -3.620286 -17.859441 -0.905114 0.046860 0.371380 0.203130 -5.161949 -1.427753 -10.167446 26.712176 -9.881892 35.201582 -10.960773 -1.258850 14.478070 4.418586 1.364856 -12.272801 -3.238499 -8.995544 44.655361 21.201640 -18.648080 -17.001010 -5.773105 -32.820410 7.609433 -33.771802 -44.925127 8.686107 130.878109 -62.961051 -122.980271 -3.694070 2.847164 0.525160 -0.051610 -0.021010 0.244010 -3.231458 29.322545 6.512250 -4.191070 16.344423 -11.972852 -150.922699 58.154531 -144.796255 1.877844 -2.020903 -0.171420 0.288480 0.055720 0.033720 
-2.423360 18.171770 -3.054070 -41.618206 52.152197 -39.970624 -15.770138 11.501423 1.042595 24.457352 0.935662 -15.704129 -3.030752 8.540004 21.879587 -0.233951 5.772556 2.465904 0.308470 -0.020160 0.095640 18.445460 -6.401271 7.195310 -28.651631 15.070650 -70.719557 23.274520 -47.790252 88.777252 -4.029051 -19.058786 -1.093570 -0.004260 0.308490 0.194100 -5.340473 -1.107018 -10.249400 28.079425 -9.454213 34.385705 -12.068647 -0.340545 12.070346 4.878405 2.122588 -13.104903 -1.886376 -9.551310 47.826865 21.403310 -19.095860 -16.388450 -8.788986 -31.812829 8.922315 -40.642983 -39.826309 5.556799 162.096701 -72.527545 -170.199750 -3.339564 3.220594 0.556230 -0.095840 0.026070 0.224050 -1.321625 28.926373 6.327759 2.756563 16.717533 -11.433819 -178.130767 60.258558 168.230964 1.815355 -1.813962 -0.152490 0.253730 0.027820 0.019720 
-2.443850 18.232120 -3.020620 -43.588545 53.694968 -41.245494 -15.786300 11.578256 1.104017 24.178662 1.022246 -15.742687 -2.787404 7.840869 19.227674 -0.235598 5.379151 2.611263 0.312620 -0.025730 0.150360 18.361631 -6.473221 7.048122 -24.932976 18.453123 -69.543518 23.517723 -50.875570 92.663132 -4.406309 -20.104259 -1.234667 -0.043030 0.252030 0.198320 -5.425031 -0.914126 -10.282093 29.066352 -9.680083 34.746272 -12.855137 -0.012444 9.867786 5.060302 2.610903 -13.623308 -0.877181 -10.315433 49.870141 21.508040 -19.183050 -17.121730 -11.877368 -30.629577 9.329555 -45.067347 -33.919726 2.684418 -157.629664 -71.911469 136.082738 -3.382830 2.877156 0.601400 -0.136990 0.085640 0.206190 1.232456 28.362515 6.823709 8.632149 16.607399 -11.112350 164.060450 59.665830 135.630477 1.971250 -1.536025 -0.131690 0.236110 -0.001950 0.004980 
